<svg xmlns="http://www.w3.org/2000/svg" width="256" height="256" viewBox="0 0 100 100"><rect width="100" height="100" rx="50" fill="#7d6ee7"></rect><path fill="#fff" d="M20.57 70.70L20.57 70.70Q26.24 70.70 28.94 68.36Q31.64 66.02 31.64 62.33L31.64 62.33Q31.64 59.09 29.57 57.11Q27.50 55.13 23.00 53.78L23.00 53.78L16.25 51.71Q13.10 50.72 10.54 49.41Q7.97 48.11 6.17 46.36Q4.37 44.60 3.43 42.22Q2.48 39.83 2.48 36.68L2.48 36.68Q2.48 29.57 7.75 25.48Q13.01 21.38 22.01 21.38L22.01 21.38Q25.70 21.38 28.85 21.97Q32 22.55 34.30 23.59Q36.59 24.62 37.90 26.02Q39.20 27.41 39.20 29.03L39.20 29.03Q39.20 30.56 38.44 31.69Q37.67 32.81 36.59 33.53L36.59 33.53Q34.34 31.82 30.70 30.61Q27.05 29.39 22.64 29.39L22.64 29.39Q17.69 29.39 14.99 31.37Q12.29 33.35 12.29 36.68L12.29 36.68Q12.29 39.38 14.18 41.05Q16.07 42.71 20.39 43.97L20.39 43.97L25.61 45.50Q33.17 47.75 37.36 51.66Q41.54 55.58 41.54 62.33L41.54 62.33Q41.54 65.93 40.15 68.94Q38.75 71.96 36.14 74.12Q33.53 76.28 29.62 77.45Q25.70 78.62 20.75 78.62L20.75 78.62Q16.61 78.62 13.19 77.90Q9.77 77.18 7.30 76.01Q4.82 74.84 3.47 73.31Q2.12 71.78 2.12 70.07L2.12 70.07Q2.12 68.27 3.20 67.01Q4.28 65.75 5.72 65.12L5.72 65.12Q7.88 67.10 11.62 68.90Q15.35 70.70 20.57 70.70ZM97.88 76.10L97.88 76.10Q96.89 76.91 95.36 77.45Q93.83 77.99 91.76 77.99L91.76 77.99Q89.24 77.99 87.40 77.05Q85.55 76.10 84.02 73.49L84.02 73.49L69.17 47.66Q68.18 45.95 67.15 44.06Q66.11 42.17 65.17 40.28Q64.22 38.39 63.37 36.63Q62.51 34.88 61.88 33.53L61.88 33.53L61.43 33.62Q61.88 38.30 62.06 43.66Q62.24 49.01 62.24 53.78L62.24 53.78L62.24 77.27Q61.61 77.45 60.40 77.67Q59.18 77.90 57.92 77.90L57.92 77.90Q55.22 77.90 54.01 76.91Q52.79 75.92 52.79 73.58L52.79 73.58L52.79 24.26Q53.69 23.27 55.36 22.69Q57.02 22.10 58.91 22.10L58.91 22.10Q61.43 22.10 63.32 23Q65.21 23.90 66.74 26.51L66.74 26.51L81.68 52.43Q82.67 54.14 83.66 56.03Q84.65 57.92 85.59 59.81Q86.54 61.70 87.40 63.45Q88.25 65.21 88.88 66.56L88.88 66.56L89.24 66.47Q88.52 59.63 88.43 52.92Q88.34 46.22 88.34 39.83L88.34 39.83L88.34 22.73Q89.06 22.55 90.23 22.33Q91.40 22.10 92.75 22.10L92.75 22.10Q95.45 22.10 96.66 23.09Q97.88 24.08 97.88 26.42L97.88 26.42L97.88 76.10Z"></path></svg>